<?xml version="1.0" encoding="UTF-8"?>
<svg id="Layer_1" xmlns="http://www.w3.org/2000/svg" version="1.1" viewBox="0 0 453.15 400.54">
  <!-- Generator: Adobe Illustrator 30.1.0, SVG Export Plug-In . SVG Version: 2.1.1 Build 136)  -->
  <defs>
    <style>
      .st0 {
        fill: #f3a31d;
      }

      .st1 {
        fill: #2a2f35;
      }
    </style>
  </defs>
  <g>
    <path class="st0" d="M252.53,220.12v80.66h37.08v-59.24l-37.08-21.42Z"/>
    <polygon class="st1" points="377.94 152.17 377.94 300.78 340.86 300.78 340.86 173.59 289.62 144 289.62 198.7 252.53 177.29 252.53 83.38 200.35 53.26 200.35 300.78 103.19 300.78 126.25 287.47 126.25 278.42 87.52 300.78 75.21 300.78 75.21 298.8 126.25 269.34 126.25 260.3 75.21 289.75 75.21 280.71 126.25 251.26 126.25 242.18 75.21 271.66 75.21 262.62 126.25 233.13 126.25 224.09 75.21 253.54 75.21 244.5 126.25 215.01 126.25 205.97 75.21 235.42 75.21 226.38 126.25 196.92 126.25 187.88 75.21 217.33 75.21 208.29 126.25 178.83 126.25 169.79 75.21 199.24 75.21 190.2 126.25 160.71 126.25 151.67 75.21 181.15 75.21 172.08 126.25 142.59 126.25 133.55 75.21 163.03 75.21 153.99 126.25 124.5 126.25 115.46 75.21 144.91 75.21 135.87 126.25 106.41 126.25 97.37 75.21 126.82 75.21 117.78 126.25 88.32 126.25 79.25 75.21 108.73 75.21 99.65 126.25 70.2 126.25 61.12 75.21 90.61 75.21 81.57 126.25 52.08 126.25 43.04 75.21 72.52 75.21 61.76 182.23 0 289.62 62 289.62 101.17 377.94 152.17"/>
  </g>
  <g>
    <g>
      <path class="st1" d="M0,315.14h12.04l11.77,30.97,11.77-30.97h12.04v43.88h-9.35v-27.57l-9.78,27.57h-9.41l-9.72-27.57v27.57H0v-43.88Z"/>
      <path class="st1" d="M66.3,325.66c2.12,0,4,.27,5.72.84s3.13,1.34,4.34,2.35c1.18,1.01,2.12,2.25,2.79,3.73.67,1.45,1.01,3.06,1.01,4.84v21.59h-8.84v-4.51c-1.14,1.65-2.59,2.89-4.4,3.77s-3.9,1.31-6.29,1.31c-3.13,0-5.65-.81-7.6-2.39s-2.93-3.97-2.93-7.09c0-2.35.54-4.17,1.58-5.51,1.04-1.34,2.35-2.39,3.93-3.13,1.55-.74,3.26-1.24,5.08-1.51,1.85-.27,3.53-.5,5.08-.71,1.55-.2,2.89-.4,3.93-.64,1.08-.24,1.61-.67,1.61-1.34-.03-1.08-.54-1.98-1.48-2.66s-2.25-1.01-3.9-1.01c-1.48,0-2.76.34-3.87.98-1.08.64-2.12,1.71-3.03,3.19l-7.9-1.88c1.31-3.36,3.26-5.88,5.85-7.6s5.68-2.59,9.35-2.59l-.03-.03ZM71.28,343.14c-.5.44-1.18.74-1.98.98-.81.2-1.68.4-2.59.54s-1.78.27-2.69.4-1.71.34-2.42.57c-.71.27-1.31.61-1.75,1.08s-.67,1.11-.67,1.88c0,1.01.37,1.78,1.14,2.32s1.85.81,3.26.81c1.14,0,2.15-.17,3.09-.5s1.75-.81,2.42-1.41,1.21-1.31,1.61-2.15.57-1.75.57-2.72v-1.78Z"/>
      <path class="st1" d="M91.62,330.27c1.21-1.48,2.66-2.62,4.34-3.43s3.56-1.21,5.68-1.21c4.24,0,7.56,1.18,9.99,3.56,2.39,2.39,3.6,5.68,3.6,9.88v19.9h-8.84v-17.08c0-2.42-.61-4.3-1.82-5.65-1.21-1.34-2.89-2.02-5.08-2.02-2.39,0-4.27.77-5.72,2.29-1.41,1.51-2.15,3.5-2.15,5.98v16.51h-8.84v-32.78h8.84v4.03h0Z"/>
      <path class="st1" d="M133.28,325.66c2.12,0,4,.27,5.72.84s3.13,1.34,4.34,2.35c1.18,1.01,2.12,2.25,2.79,3.73.67,1.45,1.01,3.06,1.01,4.84v21.59h-8.84v-4.51c-1.14,1.65-2.59,2.89-4.4,3.77s-3.9,1.31-6.29,1.31c-3.13,0-5.65-.81-7.6-2.39-1.95-1.61-2.93-3.97-2.93-7.09,0-2.35.54-4.17,1.58-5.51,1.04-1.34,2.35-2.39,3.93-3.13,1.55-.74,3.26-1.24,5.08-1.51,1.82-.27,3.53-.5,5.08-.71,1.55-.2,2.89-.4,3.93-.64,1.08-.24,1.61-.67,1.61-1.34-.03-1.08-.54-1.98-1.48-2.66s-2.25-1.01-3.9-1.01c-1.48,0-2.76.34-3.87.98s-2.12,1.71-3.03,3.19l-7.9-1.88c1.31-3.36,3.26-5.88,5.85-7.6s5.68-2.59,9.35-2.59l-.03-.03ZM138.25,343.14c-.5.44-1.18.74-1.98.98s-1.68.4-2.59.54-1.78.27-2.69.4-1.71.34-2.42.57c-.71.27-1.31.61-1.75,1.08-.44.47-.67,1.11-.67,1.88,0,1.01.37,1.78,1.14,2.32s1.85.81,3.26.81c1.14,0,2.15-.17,3.09-.5s1.75-.81,2.42-1.41c.67-.61,1.21-1.31,1.61-2.15.4-.84.57-1.75.57-2.72v-1.78Z"/>
      <path class="st1" d="M150.05,336.32c0-3.33.94-5.82,2.82-7.53,1.88-1.68,4.64-2.56,8.3-2.56h7.26v7.77h-5.75c-2.52,0-3.8,1.24-3.8,3.73v21.25h-8.84v-22.69.03Z"/>
      <path class="st1" d="M200.05,315.14h9.82l15.2,43.88h-9.88l-2.39-7.26h-15.67l-2.39,7.26h-9.88l15.2-43.88ZM209.97,343.28l-5.04-15.03-5.04,15.03h10.09Z"/>
      <path class="st1" d="M227.12,314.26h8.84v44.75h-8.84v-44.75Z"/>
      <path class="st1" d="M254.21,315.14h9.35v17.55h18.96v-17.55h9.35v43.88h-9.35v-17.48h-18.96v17.48h-9.35v-43.88Z"/>
      <path class="st1" d="M295.4,315.17h9.11v8.14h-9.11v-8.14ZM295.54,326.23h8.84v32.78h-8.84v-32.78Z"/>
      <path class="st1" d="M316.35,338l10.42-11.77h10.42l-14.15,16.37,14.15,16.37h-10.42l-10.42-11.77v11.77h-8.84v-44.75h8.84v23.77Z"/>
      <path class="st1" d="M348.12,329.7c1.04-1.28,2.29-2.29,3.7-2.99,1.41-.71,2.99-1.04,4.74-1.04,2.12,0,3.93.54,5.45,1.58,1.51,1.04,2.72,2.52,3.56,4.4,1.08-1.88,2.49-3.33,4.17-4.4s3.56-1.58,5.68-1.58c3.23,0,5.78,1.18,7.67,3.53,1.88,2.35,2.82,5.58,2.82,9.68v20.14h-8.84v-17.69c0-2.22-.44-3.97-1.24-5.21-.84-1.24-2.02-1.88-3.5-1.88-1.65,0-2.93.74-3.87,2.25s-1.41,3.5-1.41,5.98v16.51h-8.84v-17.62c0-2.22-.4-3.97-1.24-5.24s-1.98-1.92-3.5-1.92c-1.65,0-2.93.74-3.9,2.25-.94,1.51-1.45,3.5-1.45,5.98v16.51h-8.84v-32.78h8.84v3.53Z"/>
      <path class="st1" d="M403.93,325.66c2.12,0,4,.27,5.72.84,1.68.57,3.13,1.34,4.34,2.35,1.18,1.01,2.12,2.25,2.79,3.73.67,1.45,1.01,3.06,1.01,4.84v21.59h-8.84v-4.51c-1.14,1.65-2.59,2.89-4.4,3.77s-3.9,1.31-6.29,1.31c-3.13,0-5.65-.81-7.6-2.39-1.95-1.61-2.93-3.97-2.93-7.09,0-2.35.54-4.17,1.58-5.51s2.35-2.39,3.93-3.13c1.55-.74,3.26-1.24,5.08-1.51,1.85-.27,3.53-.5,5.08-.71,1.55-.2,2.89-.4,3.93-.64,1.08-.24,1.61-.67,1.61-1.34-.03-1.08-.54-1.98-1.48-2.66s-2.25-1.01-3.9-1.01c-1.48,0-2.76.34-3.87.98-1.08.64-2.12,1.71-3.03,3.19l-7.9-1.88c1.31-3.36,3.26-5.88,5.85-7.6s5.68-2.59,9.35-2.59l-.03-.03ZM408.91,343.14c-.5.44-1.18.74-1.98.98s-1.68.4-2.59.54-1.78.27-2.69.4-1.71.34-2.42.57c-.71.27-1.31.61-1.75,1.08-.44.47-.67,1.11-.67,1.88,0,1.01.37,1.78,1.14,2.32s1.85.81,3.26.81c1.14,0,2.15-.17,3.09-.5s1.75-.81,2.42-1.41,1.21-1.31,1.61-2.15c.4-.84.57-1.75.57-2.72v-1.78Z"/>
      <path class="st1" d="M429.55,330.27c1.21-1.48,2.66-2.62,4.34-3.43s3.56-1.21,5.68-1.21c4.24,0,7.56,1.18,9.99,3.56s3.6,5.68,3.6,9.88v19.9h-8.84v-17.08c0-2.42-.61-4.3-1.82-5.65-1.21-1.34-2.89-2.02-5.08-2.02-2.39,0-4.27.77-5.72,2.29-1.41,1.51-2.15,3.5-2.15,5.98v16.51h-8.84v-44.75h8.84v16.04-.03Z"/>
    </g>
    <g>
      <path class="st1" d="M20.17,371.29h9.38c1.04,0,2.02.13,2.89.4s1.61.64,2.25,1.14,1.11,1.11,1.45,1.82c.34.71.5,1.55.5,2.49,0,1.11-.24,2.08-.74,2.86-.5.81-1.21,1.45-2.15,1.92,2.15.98,3.23,2.76,3.23,5.28,0,4.03-2.35,6.02-7.09,6.02h-9.75v-21.96l.03.03ZM28.71,379.99c1.08,0,1.85-.17,2.39-.5.5-.34.77-.87.77-1.61s-.27-1.28-.77-1.61-1.31-.5-2.39-.5h-3.83v4.27h3.83v-.03ZM29.05,388.8c1.08,0,1.88-.2,2.39-.57.5-.37.74-.94.74-1.71,0-1.58-1.04-2.39-3.16-2.39h-4.17v4.64h4.17l.03.03Z"/>
      <path class="st1" d="M49.69,391.22c-.61.74-1.31,1.31-2.15,1.71s-1.78.61-2.82.61c-2.12,0-3.8-.61-5.01-1.78s-1.82-2.82-1.82-4.94v-9.95h4.4v8.54c0,1.21.3,2.15.91,2.82.61.67,1.48,1.01,2.56,1.01.57,0,1.11-.1,1.58-.3s.91-.47,1.24-.84c.34-.37.61-.81.81-1.31.2-.5.27-1.08.27-1.68v-8.24h4.4v16.37h-4.4v-2.02h.03Z"/>
      <path class="st1" d="M55.58,371.32h4.57v4.07h-4.57v-4.07ZM55.64,376.83h4.4v16.37h-4.4v-16.37Z"/>
      <path class="st1" d="M61.63,370.85h4.4v22.39h-4.4v-22.39Z"/>
      <path class="st1" d="M83.65,370.85v22.39h-4.4v-2.02c-.57.74-1.28,1.31-2.12,1.71s-1.75.61-2.72.61-1.98-.2-2.86-.64-1.61-1.01-2.25-1.78-1.11-1.68-1.48-2.72-.54-2.22-.54-3.46.17-2.35.5-3.4.81-1.92,1.45-2.66c.61-.74,1.34-1.31,2.22-1.71.87-.4,1.82-.61,2.86-.61s1.95.2,2.79.61,1.55.98,2.15,1.68v-8h4.4ZM75.55,389.21c.54,0,1.01-.1,1.48-.34.44-.2.84-.5,1.14-.91.34-.37.57-.84.77-1.34s.27-1.08.27-1.71c0-1.21-.34-2.19-1.01-2.96s-1.55-1.14-2.66-1.14c-.54,0-1.04.1-1.48.3s-.84.5-1.18.84c-.34.37-.61.81-.77,1.31s-.27,1.04-.27,1.65.1,1.18.27,1.68.44.98.77,1.34c.34.37.74.67,1.18.91.47.2.94.34,1.48.34v.03Z"/>
      <path class="st1" d="M85.4,371.32h4.57v4.07h-4.57v-4.07h0ZM85.43,376.83h4.4v16.37h-4.4v-16.37Z"/>
      <path class="st1" d="M95.89,378.85c.61-.74,1.31-1.31,2.15-1.71s1.78-.61,2.82-.61c2.12,0,3.8.61,4.98,1.78,1.21,1.18,1.82,2.82,1.82,4.94v9.95h-4.4v-8.54c0-1.21-.3-2.15-.91-2.82-.61-.67-1.45-1.01-2.56-1.01-1.18,0-2.15.37-2.86,1.14s-1.08,1.75-1.08,2.99v8.24h-4.4v-16.37h4.4v2.02h.03Z"/>
      <path class="st1" d="M117.04,400.54c-2.22,0-4.03-.44-5.48-1.34s-2.39-2.19-2.82-3.83l4.03-1.18c.27.81.74,1.41,1.45,1.82s1.55.57,2.59.57c1.28,0,2.22-.3,2.89-.87.67-.57,1.01-1.41,1.01-2.45v-2.02c-.57.71-1.31,1.28-2.15,1.68s-1.75.61-2.79.61-1.98-.2-2.86-.61-1.61-.98-2.22-1.71-1.08-1.61-1.45-2.66-.5-2.15-.5-3.4.17-2.39.54-3.46.84-1.95,1.45-2.72c.64-.77,1.38-1.34,2.25-1.78s1.82-.64,2.86-.64,1.92.2,2.72.61c.84.4,1.55.98,2.12,1.71v-2.02h4.4v16.27c0,2.42-.67,4.27-2.05,5.51s-3.36,1.92-5.98,1.92h0ZM117,380.87c-.54,0-1.01.1-1.48.34-.47.2-.84.5-1.18.91-.34.37-.61.84-.77,1.34s-.27,1.08-.27,1.68c0,1.21.34,2.19,1.04,2.96s1.58,1.14,2.69,1.14,1.98-.37,2.66-1.14,1.01-1.75,1.01-2.96c0-.64-.1-1.21-.27-1.71-.2-.5-.44-.98-.77-1.34s-.71-.67-1.14-.91c-.44-.2-.94-.34-1.45-.34l-.07.03Z"/>
      <path class="st1" d="M134.15,371.29h6.02l5.88,15.47,5.88-15.47h6.02v21.96h-4.67v-13.78l-4.88,13.78h-4.71l-4.84-13.78v13.78h-4.67v-21.96h-.03Z"/>
      <path class="st1" d="M167.3,376.56c1.04,0,2.02.13,2.86.44.84.27,1.58.67,2.15,1.18.61.5,1.04,1.11,1.38,1.85s.5,1.55.5,2.42v10.79h-4.4v-2.25c-.57.81-1.31,1.45-2.22,1.88s-1.95.67-3.16.67c-1.55,0-2.82-.4-3.8-1.21s-1.45-1.98-1.45-3.53c0-1.18.27-2.08.81-2.76s1.18-1.21,1.95-1.58c.77-.37,1.61-.64,2.56-.77s1.75-.27,2.56-.34,1.45-.2,1.98-.34.81-.34.81-.67c0-.54-.27-.98-.74-1.34-.47-.34-1.14-.5-1.95-.5-.74,0-1.38.17-1.92.47-.54.34-1.04.84-1.51,1.58l-3.93-.94c.67-1.68,1.65-2.96,2.93-3.8,1.28-.87,2.86-1.28,4.67-1.28l-.07.03ZM169.79,385.31c-.27.2-.57.37-1.01.47-.4.1-.84.2-1.28.27s-.91.13-1.34.2-.84.17-1.21.3-.64.3-.87.54-.34.54-.34.94c0,.5.2.91.57,1.14s.91.4,1.61.4c.57,0,1.08-.07,1.55-.24.47-.17.87-.4,1.21-.71s.61-.67.81-1.08.3-.87.3-1.34v-.91Z"/>
      <path class="st1" d="M181.62,380.73v7.13c0,.98.44,1.45,1.31,1.45h3.26v3.9h-3.87c-1.65,0-2.89-.37-3.8-1.11-.87-.74-1.34-1.88-1.34-3.4v-8h-2.25v-3.9h.94c.44,0,.81-.07,1.11-.17s.54-.3.71-.57.3-.61.37-1.08c.07-.44.1-1.01.1-1.71h3.46v3.5h4.57v3.9h-4.57v.07Z"/>
      <path class="st1" d="M191.34,385.84c.17,1.01.61,1.82,1.24,2.42.64.64,1.48.94,2.49.94.81,0,1.48-.24,2.05-.67s.98-1.08,1.24-1.88l4.47.94c-.47,1.82-1.38,3.26-2.79,4.34-1.38,1.04-3.06,1.58-5.08,1.58-1.24,0-2.35-.2-3.4-.64-1.01-.44-1.92-1.01-2.62-1.78-.74-.77-1.31-1.65-1.71-2.69s-.61-2.19-.61-3.4.2-2.39.61-3.43.98-1.92,1.71-2.66,1.61-1.31,2.62-1.71,2.15-.61,3.36-.61,2.35.2,3.36.64,1.85,1.04,2.52,1.85c.71.81,1.21,1.78,1.58,2.93.37,1.14.57,2.45.57,3.9h-11.67l.03-.07ZM198.13,383.32c-.27-.94-.64-1.65-1.21-2.12-.54-.47-1.21-.71-1.98-.71-.87,0-1.61.27-2.22.77-.61.5-1.01,1.18-1.24,2.05h6.66,0Z"/>
      <path class="st1" d="M204.22,381.88c0-1.65.47-2.93,1.41-3.77s2.32-1.28,4.17-1.28h3.63v3.9h-2.86c-1.28,0-1.92.64-1.92,1.88v10.62h-4.4v-11.36h-.03Z"/>
      <path class="st1" d="M214.57,371.32h4.57v4.07h-4.57v-4.07ZM214.64,376.83h4.4v16.37h-4.4v-16.37Z"/>
      <path class="st1" d="M228.49,376.56c1.04,0,2.02.13,2.86.44.84.27,1.58.67,2.15,1.18.61.5,1.04,1.11,1.38,1.85s.5,1.55.5,2.42v10.79h-4.4v-2.25c-.57.81-1.31,1.45-2.22,1.88s-1.95.67-3.16.67c-1.55,0-2.82-.4-3.8-1.21s-1.45-1.98-1.45-3.53c0-1.18.27-2.08.81-2.76s1.18-1.21,1.95-1.58c.77-.37,1.61-.64,2.56-.77s1.75-.27,2.56-.34,1.45-.2,1.98-.34.81-.34.81-.67c0-.54-.27-.98-.74-1.34-.47-.34-1.14-.5-1.95-.5-.74,0-1.38.17-1.92.47-.54.34-1.04.84-1.51,1.58l-3.93-.94c.67-1.68,1.65-2.96,2.93-3.8,1.28-.87,2.86-1.28,4.67-1.28l-.07.03ZM230.98,385.31c-.27.2-.57.37-1.01.47-.4.1-.84.2-1.28.27s-.91.13-1.34.2-.84.17-1.21.3-.64.3-.87.54-.34.54-.34.94c0,.5.2.91.57,1.14s.91.4,1.61.4c.57,0,1.08-.07,1.55-.24.47-.17.87-.4,1.21-.71s.61-.67.81-1.08.3-.87.3-1.34v-.91Z"/>
      <path class="st1" d="M236.87,370.85h4.4v22.39h-4.4v-22.39Z"/>
      <path class="st1" d="M257.11,388.53c0,1.55-.61,2.79-1.78,3.66s-2.86,1.31-4.98,1.31c-1.95,0-3.6-.4-4.91-1.18-1.31-.77-2.32-1.92-2.96-3.46l3.93-1.38c.4.71.87,1.21,1.41,1.55s1.31.5,2.25.5c.77,0,1.38-.1,1.82-.34s.67-.54.67-.91-.24-.71-.71-.91c-.47-.2-1.08-.4-1.82-.57-.74-.17-1.51-.37-2.35-.57-.84-.2-1.61-.5-2.35-.87s-1.34-.84-1.82-1.45-.71-1.38-.71-2.35c0-.77.17-1.45.47-2.08.34-.64.77-1.14,1.38-1.58s1.31-.77,2.15-1.01c.84-.24,1.78-.34,2.82-.34,1.95,0,3.53.44,4.77,1.31,1.24.87,2.05,2.12,2.42,3.8l-4.03.91c-.4-1.38-1.41-2.05-3.03-2.05-.71,0-1.28.1-1.71.34s-.67.5-.67.87.24.64.71.81c.47.2,1.08.37,1.82.57s1.51.37,2.35.57c.84.2,1.65.5,2.35.87.71.4,1.31.91,1.82,1.55.47.64.71,1.45.71,2.49l-.03-.07Z"/>
      <path class="st1" d="M264.67,375.69h-6.79v-4.4h18.26v4.4h-6.79v17.52h-4.67v-17.52Z"/>
      <path class="st1" d="M275.73,381.88c0-1.65.47-2.93,1.41-3.77s2.32-1.28,4.17-1.28h3.63v3.9h-2.86c-1.28,0-1.92.64-1.92,1.88v10.62h-4.4v-11.36h-.03Z"/>
      <path class="st1" d="M293.52,376.56c1.04,0,2.02.13,2.86.44.84.27,1.58.67,2.15,1.18.61.5,1.04,1.11,1.38,1.85s.5,1.55.5,2.42v10.79h-4.4v-2.25c-.57.81-1.31,1.45-2.22,1.88s-1.95.67-3.16.67c-1.55,0-2.82-.4-3.8-1.21s-1.45-1.98-1.45-3.53c0-1.18.27-2.08.81-2.76s1.18-1.21,1.95-1.58c.77-.37,1.61-.64,2.56-.77s1.75-.27,2.56-.34,1.45-.2,1.98-.34.81-.34.81-.67c0-.54-.27-.98-.74-1.34-.47-.34-1.14-.5-1.95-.5-.74,0-1.38.17-1.92.47-.54.34-1.04.84-1.51,1.58l-3.93-.94c.67-1.68,1.65-2.96,2.93-3.8,1.28-.87,2.86-1.28,4.67-1.28l-.07.03ZM295.97,385.31c-.27.2-.57.37-1.01.47-.4.1-.84.2-1.28.27s-.91.13-1.34.2-.84.17-1.21.3-.64.3-.87.54-.34.54-.34.94c0,.5.2.91.57,1.14s.91.4,1.61.4c.57,0,1.08-.07,1.55-.24.47-.17.87-.4,1.21-.71s.61-.67.81-1.08.3-.87.3-1.34v-.91Z"/>
      <path class="st1" d="M317.83,370.85v22.39h-4.4v-2.02c-.57.74-1.28,1.31-2.12,1.71s-1.75.61-2.72.61-1.98-.2-2.86-.64-1.61-1.01-2.25-1.78-1.11-1.68-1.45-2.72-.54-2.22-.54-3.46.17-2.35.5-3.4.81-1.92,1.45-2.66c.61-.74,1.34-1.31,2.22-1.71s1.82-.61,2.86-.61,1.95.2,2.79.61,1.55.98,2.15,1.68v-8h4.4-.03ZM309.72,389.21c.54,0,1.01-.1,1.45-.34.44-.2.84-.5,1.14-.91.34-.37.57-.84.77-1.34.17-.5.27-1.08.27-1.71,0-1.21-.34-2.19-1.01-2.96-.67-.77-1.55-1.14-2.66-1.14-.54,0-1.04.1-1.48.3s-.84.5-1.18.84c-.34.37-.61.81-.77,1.31s-.27,1.04-.27,1.65.1,1.18.27,1.68.44.98.77,1.34.74.67,1.18.91c.47.2.94.34,1.48.34l.03.03Z"/>
      <path class="st1" d="M319.58,371.32h4.57v4.07h-4.57v-4.07ZM319.64,376.83h4.4v16.37h-4.4v-16.37Z"/>
      <path class="st1" d="M330.07,378.85c.61-.74,1.31-1.31,2.15-1.71s1.78-.61,2.82-.61c2.12,0,3.8.61,4.98,1.78,1.21,1.18,1.82,2.82,1.82,4.94v9.95h-4.4v-8.54c0-1.21-.3-2.15-.91-2.82-.61-.67-1.45-1.01-2.56-1.01-1.18,0-2.15.37-2.86,1.14s-1.08,1.75-1.08,2.99v8.24h-4.4v-16.37h4.4v2.02h.03Z"/>
      <path class="st1" d="M351.21,400.54c-2.22,0-4.03-.44-5.48-1.34s-2.39-2.19-2.82-3.83l4.03-1.18c.27.81.74,1.41,1.45,1.82s1.55.57,2.59.57c1.28,0,2.22-.3,2.89-.87.67-.57,1.01-1.41,1.01-2.45v-2.02c-.57.71-1.31,1.28-2.15,1.68s-1.75.61-2.79.61-1.98-.2-2.86-.61-1.61-.98-2.22-1.71-1.08-1.61-1.45-2.66-.5-2.15-.5-3.4.17-2.39.54-3.46.84-1.95,1.45-2.72c.64-.77,1.38-1.34,2.25-1.78s1.82-.64,2.86-.64,1.92.2,2.72.61c.84.4,1.55.98,2.12,1.71v-2.02h4.4v16.27c0,2.42-.67,4.27-2.05,5.51s-3.36,1.92-5.98,1.92h0ZM351.18,380.87c-.54,0-1.01.1-1.48.34-.47.2-.84.5-1.18.91-.34.37-.61.84-.77,1.34s-.27,1.08-.27,1.68c0,1.21.34,2.19,1.04,2.96s1.58,1.14,2.69,1.14,1.98-.37,2.66-1.14,1.01-1.75,1.01-2.96c0-.64-.1-1.21-.27-1.71-.2-.5-.44-.98-.77-1.34s-.71-.67-1.14-.91c-.44-.2-.94-.34-1.45-.34l-.07.03Z"/>
      <path class="st1" d="M368.36,371.29h4.67v17.52h10.93v4.4h-15.63v-21.96l.03.03Z"/>
      <path class="st1" d="M384.7,389.17h4.57v4.07h-4.57v-4.07Z"/>
      <path class="st1" d="M390.52,371.29h4.67v17.52h10.93v4.4h-15.63v-21.96l.03.03Z"/>
      <path class="st1" d="M406.86,389.17h4.57v4.07h-4.57v-4.07Z"/>
      <path class="st1" d="M417.18,382.25c0,1.01.13,1.95.4,2.76s.64,1.55,1.14,2.12c.5.61,1.08,1.04,1.78,1.38s1.48.47,2.32.47c1.41,0,2.59-.44,3.56-1.28.98-.87,1.61-2.05,1.92-3.53l4.64.98c-.5,2.69-1.61,4.77-3.36,6.22s-3.93,2.19-6.62,2.19c-1.61,0-3.06-.27-4.37-.81-1.31-.54-2.42-1.31-3.36-2.29s-1.61-2.19-2.12-3.56-.77-2.93-.77-4.61.27-3.23.77-4.61c.5-1.38,1.21-2.56,2.12-3.56.91-.98,2.02-1.75,3.36-2.29,1.31-.54,2.76-.81,4.37-.81,2.66,0,4.88.74,6.62,2.19,1.75,1.48,2.86,3.53,3.36,6.19l-4.64.98c-.3-1.51-.94-2.69-1.92-3.53s-2.15-1.28-3.56-1.28c-.84,0-1.61.17-2.32.47-.71.34-1.31.77-1.78,1.34-.5.57-.87,1.28-1.14,2.12s-.4,1.75-.4,2.72v.03Z"/>
    </g>
  </g>
</svg>