<?xml version="1.0" encoding="UTF-8"?>
<svg id="Layer_1" xmlns="http://www.w3.org/2000/svg" version="1.1" viewBox="0 0 480.72 424.9">
  <!-- Generator: Adobe Illustrator 30.1.0, SVG Export Plug-In . SVG Version: 2.1.1 Build 136)  -->
  <defs>
    <style>
      .st0 {
        fill: #fff;
      }
    </style>
  </defs>
  <g>
    <path class="st0" d="M267.89,233.51v85.57h39.34v-62.85l-39.34-22.72Z"/>
    <polygon class="st0" points="400.93 161.43 400.93 319.08 361.59 319.08 361.59 184.15 307.24 152.76 307.24 210.79 267.89 188.07 267.89 88.45 212.54 56.5 212.54 319.08 109.46 319.08 133.93 304.95 133.93 295.36 92.84 319.08 79.79 319.08 79.79 316.97 133.93 285.73 133.93 276.13 79.79 307.38 79.79 297.78 133.93 266.54 133.93 256.91 79.79 288.19 79.79 278.59 133.93 247.31 133.93 237.72 79.79 268.96 79.79 259.37 133.93 228.09 133.93 218.5 79.79 249.74 79.79 240.15 133.93 208.9 133.93 199.31 79.79 230.55 79.79 220.96 133.93 189.71 133.93 180.12 79.79 211.36 79.79 201.77 133.93 170.49 133.93 160.89 79.79 192.17 79.79 182.54 133.93 151.26 133.93 141.67 79.79 172.95 79.79 163.35 133.93 132.07 133.93 122.48 79.79 153.72 79.79 144.13 133.93 112.89 133.93 103.29 79.79 134.54 79.79 124.94 133.93 93.7 133.93 84.07 79.79 115.35 79.79 105.72 133.93 74.47 133.93 64.84 79.79 96.12 79.79 86.53 133.93 55.25 133.93 45.65 79.79 76.93 79.79 65.52 193.32 0 307.24 65.77 307.24 107.32 400.93 161.43"/>
  </g>
  <g>
    <g>
      <path class="st0" d="M0,334.31h12.77l12.48,32.85,12.48-32.85h12.77v46.55h-9.92v-29.25l-10.38,29.25h-9.99l-10.31-29.25v29.25H0v-46.55Z"/>
      <path class="st0" d="M70.34,345.47c2.25,0,4.24.29,6.06.89s3.32,1.43,4.6,2.5c1.25,1.07,2.25,2.39,2.96,3.96.71,1.53,1.07,3.25,1.07,5.14v22.9h-9.38v-4.78c-1.21,1.75-2.75,3.07-4.67,3.99s-4.14,1.39-6.67,1.39c-3.32,0-5.99-.86-8.06-2.53s-3.1-4.21-3.1-7.53c0-2.5.57-4.42,1.68-5.85,1.11-1.43,2.5-2.53,4.17-3.32,1.64-.78,3.46-1.32,5.39-1.61,1.96-.29,3.75-.53,5.39-.75,1.64-.21,3.07-.43,4.17-.68,1.14-.25,1.71-.71,1.71-1.43-.04-1.14-.57-2.1-1.57-2.82s-2.39-1.07-4.14-1.07c-1.57,0-2.92.36-4.1,1.03-1.14.68-2.25,1.82-3.21,3.39l-8.38-2c1.39-3.57,3.46-6.24,6.21-8.06s6.03-2.75,9.92-2.75l-.04-.04ZM75.61,364.02c-.53.46-1.25.78-2.1,1.03-.86.21-1.78.43-2.75.57s-1.89.29-2.85.43-1.82.36-2.57.61c-.75.29-1.39.64-1.85,1.14s-.71,1.18-.71,2c0,1.07.39,1.89,1.21,2.46s1.96.86,3.46.86c1.21,0,2.28-.18,3.28-.53s1.85-.86,2.57-1.5,1.28-1.39,1.71-2.28.61-1.85.61-2.89v-1.89Z"/>
      <path class="st0" d="M97.19,350.36c1.28-1.57,2.82-2.78,4.6-3.64s3.78-1.28,6.03-1.28c4.49,0,8.03,1.25,10.59,3.78,2.53,2.53,3.82,6.03,3.82,10.49v21.11h-9.38v-18.12c0-2.57-.64-4.57-1.93-5.99-1.28-1.43-3.07-2.14-5.39-2.14-2.53,0-4.53.82-6.06,2.43-1.5,1.61-2.28,3.71-2.28,6.35v17.51h-9.38v-34.78h9.38v4.28h0Z"/>
      <path class="st0" d="M141.38,345.47c2.25,0,4.24.29,6.06.89s3.32,1.43,4.6,2.5c1.25,1.07,2.25,2.39,2.96,3.96.71,1.53,1.07,3.25,1.07,5.14v22.9h-9.38v-4.78c-1.21,1.75-2.75,3.07-4.67,3.99s-4.14,1.39-6.67,1.39c-3.32,0-5.99-.86-8.06-2.53-2.07-1.71-3.1-4.21-3.1-7.53,0-2.5.57-4.42,1.68-5.85,1.11-1.43,2.5-2.53,4.17-3.32,1.64-.78,3.46-1.32,5.39-1.61,1.93-.29,3.74-.53,5.39-.75,1.64-.21,3.07-.43,4.17-.68,1.14-.25,1.71-.71,1.71-1.43-.04-1.14-.57-2.1-1.57-2.82s-2.39-1.07-4.14-1.07c-1.57,0-2.92.36-4.1,1.03s-2.25,1.82-3.21,3.39l-8.38-2c1.39-3.57,3.46-6.24,6.21-8.06s6.03-2.75,9.92-2.75l-.04-.04ZM146.66,364.02c-.53.46-1.25.78-2.1,1.03s-1.78.43-2.75.57-1.89.29-2.85.43-1.82.36-2.57.61c-.75.29-1.39.64-1.85,1.14-.46.5-.71,1.18-.71,2,0,1.07.39,1.89,1.21,2.46s1.96.86,3.46.86c1.21,0,2.28-.18,3.28-.53s1.85-.86,2.57-1.5c.71-.64,1.28-1.39,1.71-2.28.43-.89.61-1.85.61-2.89v-1.89Z"/>
      <path class="st0" d="M159.18,356.78c0-3.53,1-6.17,3-7.99,2-1.78,4.92-2.71,8.81-2.71h7.7v8.24h-6.1c-2.68,0-4.03,1.32-4.03,3.96v22.54h-9.38v-24.08.04Z"/>
      <path class="st0" d="M212.22,334.31h10.41l16.12,46.55h-10.49l-2.53-7.7h-16.62l-2.53,7.7h-10.49l16.12-46.55ZM222.74,364.16l-5.35-15.94-5.35,15.94h10.7Z"/>
      <path class="st0" d="M240.93,333.38h9.38v47.47h-9.38v-47.47Z"/>
      <path class="st0" d="M269.68,334.31h9.92v18.62h20.12v-18.62h9.92v46.55h-9.92v-18.55h-20.12v18.55h-9.92v-46.55Z"/>
      <path class="st0" d="M313.37,334.34h9.67v8.63h-9.67v-8.63ZM313.51,346.08h9.38v34.78h-9.38v-34.78Z"/>
      <path class="st0" d="M335.59,358.56l11.06-12.48h11.06l-15.02,17.37,15.02,17.37h-11.06l-11.06-12.48v12.48h-9.38v-47.47h9.38v25.22Z"/>
      <path class="st0" d="M369.3,349.75c1.11-1.36,2.43-2.43,3.92-3.17,1.5-.75,3.17-1.11,5.03-1.11,2.25,0,4.17.57,5.78,1.68,1.61,1.11,2.89,2.68,3.78,4.67,1.14-2,2.64-3.53,4.42-4.67s3.78-1.68,6.03-1.68c3.42,0,6.13,1.25,8.13,3.74,2,2.5,3,5.92,3,10.27v21.36h-9.38v-18.76c0-2.35-.46-4.21-1.32-5.53-.89-1.32-2.14-2-3.71-2-1.75,0-3.1.78-4.1,2.39s-1.5,3.71-1.5,6.35v17.51h-9.38v-18.69c0-2.35-.43-4.21-1.32-5.56s-2.1-2.03-3.71-2.03c-1.75,0-3.1.78-4.14,2.39-1,1.61-1.53,3.71-1.53,6.35v17.51h-9.38v-34.78h9.38v3.74Z"/>
      <path class="st0" d="M428.5,345.47c2.25,0,4.24.29,6.06.89,1.78.61,3.32,1.43,4.6,2.5,1.25,1.07,2.25,2.39,2.96,3.96.71,1.53,1.07,3.25,1.07,5.14v22.9h-9.38v-4.78c-1.21,1.75-2.75,3.07-4.67,3.99s-4.14,1.39-6.67,1.39c-3.32,0-5.99-.86-8.06-2.53-2.07-1.71-3.1-4.21-3.1-7.53,0-2.5.57-4.42,1.68-5.85s2.5-2.53,4.17-3.32c1.64-.78,3.46-1.32,5.39-1.61,1.96-.29,3.74-.53,5.39-.75,1.64-.21,3.07-.43,4.17-.68,1.14-.25,1.71-.71,1.71-1.43-.04-1.14-.57-2.1-1.57-2.82s-2.39-1.07-4.14-1.07c-1.57,0-2.92.36-4.1,1.03-1.14.68-2.25,1.82-3.21,3.39l-8.38-2c1.39-3.57,3.46-6.24,6.21-8.06s6.03-2.75,9.92-2.75l-.04-.04ZM433.78,364.02c-.53.46-1.25.78-2.1,1.03s-1.78.43-2.75.57-1.89.29-2.85.43-1.82.36-2.57.61c-.75.29-1.39.64-1.85,1.14-.46.5-.71,1.18-.71,2,0,1.07.39,1.89,1.21,2.46s1.96.86,3.46.86c1.21,0,2.28-.18,3.28-.53s1.85-.86,2.57-1.5,1.28-1.39,1.71-2.28c.43-.89.61-1.85.61-2.89v-1.89Z"/>
      <path class="st0" d="M455.68,350.36c1.28-1.57,2.82-2.78,4.6-3.64s3.78-1.28,6.03-1.28c4.49,0,8.03,1.25,10.59,3.78s3.82,6.03,3.82,10.49v21.11h-9.38v-18.12c0-2.57-.64-4.57-1.93-5.99-1.28-1.43-3.07-2.14-5.39-2.14-2.53,0-4.53.82-6.06,2.43-1.5,1.61-2.28,3.71-2.28,6.35v17.51h-9.38v-47.47h9.38v17.01-.04Z"/>
    </g>
    <g>
      <path class="st0" d="M21.4,393.87h9.95c1.11,0,2.14.14,3.07.43s1.71.68,2.39,1.21,1.18,1.18,1.53,1.93c.36.75.53,1.64.53,2.64,0,1.18-.25,2.21-.78,3.03-.53.86-1.28,1.53-2.28,2.03,2.28,1.03,3.42,2.92,3.42,5.6,0,4.28-2.5,6.38-7.53,6.38h-10.34v-23.29l.04.04ZM30.46,403.11c1.14,0,1.96-.18,2.53-.53.53-.36.82-.93.82-1.71s-.29-1.36-.82-1.71-1.39-.53-2.53-.53h-4.07v4.53h4.07v-.04ZM30.82,412.45c1.14,0,2-.21,2.53-.61.53-.39.78-1,.78-1.82,0-1.68-1.11-2.53-3.35-2.53h-4.42v4.92h4.42l.04.04Z"/>
      <path class="st0" d="M52.72,415.02c-.64.78-1.39,1.39-2.28,1.82s-1.89.64-3,.64c-2.25,0-4.03-.64-5.31-1.89s-1.93-3-1.93-5.24v-10.56h4.67v9.06c0,1.28.32,2.28.96,3,.64.71,1.57,1.07,2.71,1.07.61,0,1.18-.11,1.68-.32s.96-.5,1.32-.89c.36-.39.64-.86.86-1.39.21-.53.29-1.14.29-1.78v-8.74h4.67v17.37h-4.67v-2.14h.04Z"/>
      <path class="st0" d="M58.96,393.91h4.85v4.32h-4.85v-4.32ZM59.03,399.76h4.67v17.37h-4.67v-17.37Z"/>
      <path class="st0" d="M65.38,393.41h4.67v23.75h-4.67v-23.75Z"/>
      <path class="st0" d="M88.74,393.41v23.75h-4.67v-2.14c-.61.78-1.36,1.39-2.25,1.82s-1.85.64-2.89.64-2.1-.21-3.03-.68-1.71-1.07-2.39-1.89-1.18-1.78-1.57-2.89-.57-2.35-.57-3.67.18-2.5.53-3.6.86-2.03,1.53-2.82c.64-.78,1.43-1.39,2.35-1.82.93-.43,1.93-.64,3.03-.64s2.07.21,2.96.64,1.64,1.03,2.28,1.78v-8.49h4.67ZM80.14,412.88c.57,0,1.07-.11,1.57-.36.46-.21.89-.53,1.21-.96.36-.39.61-.89.82-1.43s.29-1.14.29-1.82c0-1.28-.36-2.32-1.07-3.14s-1.64-1.21-2.82-1.21c-.57,0-1.11.11-1.57.32s-.89.53-1.25.89c-.36.39-.64.86-.82,1.39s-.29,1.11-.29,1.75.11,1.25.29,1.78.46,1.03.82,1.43c.36.39.78.71,1.25.96.5.21,1,.36,1.57.36v.04Z"/>
      <path class="st0" d="M90.59,393.91h4.85v4.32h-4.85v-4.32h0ZM90.63,399.76h4.67v17.37h-4.67v-17.37Z"/>
      <path class="st0" d="M101.72,401.9c.64-.78,1.39-1.39,2.28-1.82s1.89-.64,3-.64c2.25,0,4.03.64,5.28,1.89,1.28,1.25,1.93,3,1.93,5.24v10.56h-4.67v-9.06c0-1.28-.32-2.28-.96-3-.64-.71-1.53-1.07-2.71-1.07-1.25,0-2.28.39-3.03,1.21s-1.14,1.85-1.14,3.17v8.74h-4.67v-17.37h4.67v2.14h.04Z"/>
      <path class="st0" d="M124.16,424.9c-2.35,0-4.28-.46-5.81-1.43s-2.53-2.32-3-4.07l4.28-1.25c.29.86.78,1.5,1.53,1.93s1.64.61,2.75.61c1.36,0,2.35-.32,3.07-.93.71-.61,1.07-1.5,1.07-2.6v-2.14c-.61.75-1.39,1.36-2.28,1.78s-1.85.64-2.96.64-2.1-.21-3.03-.64-1.71-1.03-2.35-1.82-1.14-1.71-1.53-2.82-.53-2.28-.53-3.6.18-2.53.57-3.67.89-2.07,1.53-2.89c.68-.82,1.46-1.43,2.39-1.89s1.93-.68,3.03-.68,2.03.21,2.89.64c.89.43,1.64,1.03,2.25,1.82v-2.14h4.67v17.26c0,2.57-.71,4.53-2.18,5.85s-3.57,2.03-6.35,2.03h0ZM124.12,404.04c-.57,0-1.07.11-1.57.36-.5.21-.89.53-1.25.96-.36.39-.64.89-.82,1.43s-.29,1.14-.29,1.78c0,1.28.36,2.32,1.11,3.14s1.68,1.21,2.85,1.21,2.1-.39,2.82-1.21,1.07-1.85,1.07-3.14c0-.68-.11-1.28-.29-1.82-.21-.53-.46-1.03-.82-1.43s-.75-.71-1.21-.96c-.46-.21-1-.36-1.53-.36l-.07.04Z"/>
      <path class="st0" d="M142.31,393.87h6.38l6.24,16.41,6.24-16.41h6.38v23.29h-4.96v-14.62l-5.17,14.62h-4.99l-5.14-14.62v14.62h-4.96v-23.29h-.04Z"/>
      <path class="st0" d="M177.48,399.47c1.11,0,2.14.14,3.03.46.89.29,1.68.71,2.28,1.25.64.53,1.11,1.18,1.46,1.96s.53,1.64.53,2.57v11.45h-4.67v-2.39c-.61.86-1.39,1.53-2.35,2s-2.07.71-3.35.71c-1.64,0-3-.43-4.03-1.28s-1.53-2.1-1.53-3.74c0-1.25.29-2.21.86-2.92s1.25-1.28,2.07-1.68c.82-.39,1.71-.68,2.71-.82s1.85-.29,2.71-.36,1.53-.21,2.1-.36.86-.36.86-.71c0-.57-.29-1.03-.78-1.43-.5-.36-1.21-.53-2.07-.53-.78,0-1.46.18-2.03.5-.57.36-1.11.89-1.61,1.68l-4.17-1c.71-1.78,1.75-3.14,3.1-4.03,1.36-.93,3.03-1.36,4.96-1.36l-.07.04ZM180.12,408.74c-.29.21-.61.39-1.07.5-.43.11-.89.21-1.36.29s-.96.14-1.43.21-.89.18-1.28.32-.68.32-.93.57-.36.57-.36,1c0,.53.21.96.61,1.21s.96.43,1.71.43c.61,0,1.14-.07,1.64-.25.5-.18.93-.43,1.28-.75s.64-.71.86-1.14.32-.93.32-1.43v-.96Z"/>
      <path class="st0" d="M192.67,403.89v7.56c0,1.03.46,1.53,1.39,1.53h3.46v4.14h-4.1c-1.75,0-3.07-.39-4.03-1.18-.93-.78-1.43-2-1.43-3.6v-8.49h-2.39v-4.14h1c.46,0,.86-.07,1.18-.18s.57-.32.75-.61.32-.64.39-1.14c.07-.46.11-1.07.11-1.82h3.67v3.71h4.85v4.14h-4.85v.07Z"/>
      <path class="st0" d="M202.98,409.31c.18,1.07.64,1.93,1.32,2.57.68.68,1.57,1,2.64,1,.86,0,1.57-.25,2.18-.71s1.03-1.14,1.32-2l4.74,1c-.5,1.93-1.46,3.46-2.96,4.6-1.46,1.11-3.25,1.68-5.39,1.68-1.32,0-2.5-.21-3.6-.68-1.07-.46-2.03-1.07-2.78-1.89-.78-.82-1.39-1.75-1.82-2.85s-.64-2.32-.64-3.6.21-2.53.64-3.64,1.03-2.03,1.82-2.82,1.71-1.39,2.78-1.82,2.28-.64,3.57-.64,2.5.21,3.57.68,1.96,1.11,2.68,1.96c.75.86,1.28,1.89,1.68,3.1.39,1.21.61,2.6.61,4.14h-12.38l.04-.07ZM210.19,406.64c-.29-1-.68-1.75-1.28-2.25-.57-.5-1.28-.75-2.1-.75-.93,0-1.71.29-2.35.82-.64.53-1.07,1.25-1.32,2.18h7.06,0Z"/>
      <path class="st0" d="M216.64,405.11c0-1.75.5-3.1,1.5-3.99s2.46-1.36,4.42-1.36h3.85v4.14h-3.03c-1.36,0-2.03.68-2.03,2v11.27h-4.67v-12.06h-.04Z"/>
      <path class="st0" d="M227.63,393.91h4.85v4.32h-4.85v-4.32ZM227.7,399.76h4.67v17.37h-4.67v-17.37Z"/>
      <path class="st0" d="M242.39,399.47c1.11,0,2.14.14,3.03.46.89.29,1.68.71,2.28,1.25.64.53,1.11,1.18,1.46,1.96s.53,1.64.53,2.57v11.45h-4.67v-2.39c-.61.86-1.39,1.53-2.35,2s-2.07.71-3.35.71c-1.64,0-3-.43-4.03-1.28s-1.53-2.1-1.53-3.74c0-1.25.29-2.21.86-2.92s1.25-1.28,2.07-1.68c.82-.39,1.71-.68,2.71-.82s1.85-.29,2.71-.36,1.53-.21,2.1-.36.86-.36.86-.71c0-.57-.29-1.03-.78-1.43-.5-.36-1.21-.53-2.07-.53-.78,0-1.46.18-2.03.5-.57.36-1.11.89-1.61,1.68l-4.17-1c.71-1.78,1.75-3.14,3.1-4.03,1.36-.93,3.03-1.36,4.96-1.36l-.07.04ZM245.03,408.74c-.29.21-.61.39-1.07.5-.43.11-.89.21-1.36.29s-.96.14-1.43.21-.89.18-1.28.32-.68.32-.93.57-.36.57-.36,1c0,.53.21.96.61,1.21s.96.43,1.71.43c.61,0,1.14-.07,1.64-.25.5-.18.93-.43,1.28-.75s.64-.71.86-1.14.32-.93.32-1.43v-.96Z"/>
      <path class="st0" d="M251.27,393.41h4.67v23.75h-4.67v-23.75Z"/>
      <path class="st0" d="M272.75,412.17c0,1.64-.64,2.96-1.89,3.89s-3.03,1.39-5.28,1.39c-2.07,0-3.82-.43-5.21-1.25-1.39-.82-2.46-2.03-3.14-3.67l4.17-1.46c.43.75.93,1.28,1.5,1.64s1.39.53,2.39.53c.82,0,1.46-.11,1.93-.36s.71-.57.71-.96-.25-.75-.75-.96c-.5-.21-1.14-.43-1.93-.61-.78-.18-1.61-.39-2.5-.61-.89-.21-1.71-.53-2.5-.93s-1.43-.89-1.93-1.53-.75-1.46-.75-2.5c0-.82.18-1.53.5-2.21.36-.68.82-1.21,1.46-1.68s1.39-.82,2.28-1.07c.89-.25,1.89-.36,3-.36,2.07,0,3.74.46,5.06,1.39,1.32.93,2.18,2.25,2.57,4.03l-4.28.96c-.43-1.46-1.5-2.18-3.21-2.18-.75,0-1.36.11-1.82.36s-.71.53-.71.93.25.68.75.86c.5.21,1.14.39,1.93.61s1.61.39,2.5.61c.89.21,1.75.53,2.5.93.75.43,1.39.96,1.93,1.64.5.68.75,1.53.75,2.64l-.04-.07Z"/>
      <path class="st0" d="M280.77,398.54h-7.2v-4.67h19.37v4.67h-7.2v18.58h-4.96v-18.58Z"/>
      <path class="st0" d="M292.51,405.11c0-1.75.5-3.1,1.5-3.99s2.46-1.36,4.42-1.36h3.85v4.14h-3.03c-1.36,0-2.03.68-2.03,2v11.27h-4.67v-12.06h-.04Z"/>
      <path class="st0" d="M311.37,399.47c1.11,0,2.14.14,3.03.46.89.29,1.68.71,2.28,1.25.64.53,1.11,1.18,1.46,1.96s.53,1.64.53,2.57v11.45h-4.67v-2.39c-.61.86-1.39,1.53-2.35,2s-2.07.71-3.35.71c-1.64,0-3-.43-4.03-1.28s-1.53-2.1-1.53-3.74c0-1.25.29-2.21.86-2.92s1.25-1.28,2.07-1.68c.82-.39,1.71-.68,2.71-.82s1.85-.29,2.71-.36,1.53-.21,2.1-.36.86-.36.86-.71c0-.57-.29-1.03-.78-1.43-.5-.36-1.21-.53-2.07-.53-.78,0-1.46.18-2.03.5-.57.36-1.11.89-1.61,1.68l-4.17-1c.71-1.78,1.75-3.14,3.1-4.03,1.36-.93,3.03-1.36,4.96-1.36l-.07.04ZM313.98,408.74c-.29.21-.61.39-1.07.5-.43.11-.89.21-1.36.29s-.96.14-1.43.21-.89.18-1.28.32-.68.32-.93.57-.36.57-.36,1c0,.53.21.96.61,1.21s.96.43,1.71.43c.61,0,1.14-.07,1.64-.25.5-.18.93-.43,1.28-.75s.64-.71.86-1.14.32-.93.32-1.43v-.96Z"/>
      <path class="st0" d="M337.16,393.41v23.75h-4.67v-2.14c-.61.78-1.36,1.39-2.25,1.82s-1.85.64-2.89.64-2.1-.21-3.03-.68-1.71-1.07-2.39-1.89-1.18-1.78-1.53-2.89-.57-2.35-.57-3.67.18-2.5.53-3.6.86-2.03,1.53-2.82c.64-.78,1.43-1.39,2.35-1.82s1.93-.64,3.03-.64,2.07.21,2.96.64,1.64,1.03,2.28,1.78v-8.49h4.67-.04ZM328.56,412.88c.57,0,1.07-.11,1.53-.36.46-.21.89-.53,1.21-.96.36-.39.61-.89.82-1.43.18-.53.29-1.14.29-1.82,0-1.28-.36-2.32-1.07-3.14-.71-.82-1.64-1.21-2.82-1.21-.57,0-1.11.11-1.57.32s-.89.53-1.25.89c-.36.39-.64.86-.82,1.39s-.29,1.11-.29,1.75.11,1.25.29,1.78.46,1.03.82,1.43.78.71,1.25.96c.5.21,1,.36,1.57.36l.04.04Z"/>
      <path class="st0" d="M339.01,393.91h4.85v4.32h-4.85v-4.32ZM339.09,399.76h4.67v17.37h-4.67v-17.37Z"/>
      <path class="st0" d="M350.14,401.9c.64-.78,1.39-1.39,2.28-1.82s1.89-.64,3-.64c2.25,0,4.03.64,5.28,1.89,1.28,1.25,1.93,3,1.93,5.24v10.56h-4.67v-9.06c0-1.28-.32-2.28-.96-3-.64-.71-1.53-1.07-2.71-1.07-1.25,0-2.28.39-3.03,1.21s-1.14,1.85-1.14,3.17v8.74h-4.67v-17.37h4.67v2.14h.04Z"/>
      <path class="st0" d="M372.58,424.9c-2.35,0-4.28-.46-5.81-1.43s-2.53-2.32-3-4.07l4.28-1.25c.29.86.78,1.5,1.53,1.93s1.64.61,2.75.61c1.36,0,2.35-.32,3.07-.93.71-.61,1.07-1.5,1.07-2.6v-2.14c-.61.75-1.39,1.36-2.28,1.78s-1.85.64-2.96.64-2.1-.21-3.03-.64-1.71-1.03-2.35-1.82-1.14-1.71-1.53-2.82-.53-2.28-.53-3.6.18-2.53.57-3.67.89-2.07,1.53-2.89c.68-.82,1.46-1.43,2.39-1.89s1.93-.68,3.03-.68,2.03.21,2.89.64c.89.43,1.64,1.03,2.25,1.82v-2.14h4.67v17.26c0,2.57-.71,4.53-2.18,5.85s-3.57,2.03-6.35,2.03h0ZM372.54,404.04c-.57,0-1.07.11-1.57.36-.5.21-.89.53-1.25.96-.36.39-.64.89-.82,1.43s-.29,1.14-.29,1.78c0,1.28.36,2.32,1.11,3.14s1.68,1.21,2.85,1.21,2.1-.39,2.82-1.21,1.07-1.85,1.07-3.14c0-.68-.11-1.28-.29-1.82-.21-.53-.46-1.03-.82-1.43s-.75-.71-1.21-.96c-.46-.21-1-.36-1.53-.36l-.07.04Z"/>
      <path class="st0" d="M390.77,393.87h4.96v18.58h11.59v4.67h-16.59v-23.29l.04.04Z"/>
      <path class="st0" d="M408.1,412.85h4.85v4.32h-4.85v-4.32Z"/>
      <path class="st0" d="M414.27,393.87h4.96v18.58h11.59v4.67h-16.59v-23.29l.04.04Z"/>
      <path class="st0" d="M431.61,412.85h4.85v4.32h-4.85v-4.32Z"/>
      <path class="st0" d="M442.56,405.5c0,1.07.14,2.07.43,2.92s.68,1.64,1.21,2.25c.53.64,1.14,1.11,1.89,1.46s1.57.5,2.46.5c1.5,0,2.75-.46,3.78-1.36,1.03-.93,1.71-2.18,2.03-3.74l4.92,1.03c-.53,2.85-1.71,5.06-3.57,6.6s-4.17,2.32-7.03,2.32c-1.71,0-3.25-.29-4.64-.86-1.39-.57-2.57-1.39-3.57-2.43s-1.71-2.32-2.25-3.78-.82-3.1-.82-4.89.29-3.42.82-4.89c.53-1.46,1.28-2.71,2.25-3.78.96-1.03,2.14-1.85,3.57-2.43,1.39-.57,2.92-.86,4.64-.86,2.82,0,5.17.78,7.03,2.32,1.85,1.57,3.03,3.74,3.57,6.56l-4.92,1.03c-.32-1.61-1-2.85-2.03-3.74s-2.28-1.36-3.78-1.36c-.89,0-1.71.18-2.46.5-.75.36-1.39.82-1.89,1.43-.53.61-.93,1.36-1.21,2.25s-.43,1.85-.43,2.89v.04Z"/>
    </g>
  </g>
</svg>